o ModelComponent
v 0.69301 0.05699 -0.541402
v 0.810738 0.05699 -0.541416
v 0.788436 0.189833 -0.624679
v 0.715331 0.189833 -0.624674
v 0.9127 0.05699 -0.600273
v 0.851766 0.189833 -0.661218
v 0.971568 0.05699 -0.702224
v 0.888283 0.189833 -0.724504
v 0.971552 0.05699 -0.819922
v 0.888283 0.189833 -0.797604
v 0.912711 0.05699 -0.921889
v 0.851739 0.189833 -0.860928
v 0.810738 0.05699 -0.980725
v 0.788436 0.189833 -0.897472
v 0.693032 0.05699 -0.980738
v 0.715331 0.189833 -0.897467
v 0.591095 0.05699 -0.921889
v 0.65204 0.189833 -0.860933
v 0.532229 0.05699 -0.819936
v 0.615474 0.189833 -0.797609
v 0.532229 0.05699 -0.702216
v 0.615474 0.189833 -0.72451
v 0.591086 0.05699 -0.600265
v 0.652034 0.189833 -0.661213
v 0.721212 0.199736 -0.646641
v 0.668121 0.199736 -0.6773
v 0.782556 0.199736 -0.646668
v 0.835641 0.199736 -0.677321
v 0.866299 0.199736 -0.730412
v 0.866299 0.199736 -0.791729
v 0.835657 0.199736 -0.844835
v 0.78254 0.199736 -0.875478
v 0.721222 0.199736 -0.875467
v 0.668154 0.199736 -0.844841
v 0.637474 0.199736 -0.791718
v 0.637474 0.199736 -0.730412
v 0.765131 0.189671 -0.711643
v 0.738637 0.189671 -0.711638
v 0.788086 0.189671 -0.724898
v 0.801303 0.189671 -0.747815
v 0.801314 0.189671 -0.774315
v 0.788064 0.189671 -0.797242
v 0.765136 0.189671 -0.810503
v 0.738642 0.189671 -0.810497
v 0.715714 0.189671 -0.797259
v 0.702443 0.189671 -0.774298
v 0.702459 0.189671 -0.747826
v 0.715714 0.189671 -0.724893
v 0.751881 0.189671 -0.76107
v 0.817711 -0.093613 -0.875053
v 0.686089 -0.093613 -0.875053
v 0.686089 0.096725 -0.875053
v 0.817711 0.096725 -0.875053
v 0.620277 -0.093613 -0.761063
v 0.620277 0.096725 -0.761063
v 0.686089 -0.093614 -0.647079
v 0.686089 0.096725 -0.647079
v 0.817711 -0.093614 -0.647079
v 0.817711 0.096725 -0.647079
v 0.883522 -0.093613 -0.761063
v 0.883522 0.096725 -0.761063
vt 0.8007 0.7916
vt 0.8551 0.7915
vt 0.8449 0.8314
vt 0.8121 0.8311
vt 0.902 0.8189
vt 0.873 0.8484
vt 0.9289 0.8661
vt 0.8889 0.8773
vt 0.9289 0.9205
vt 0.8887 0.9104
vt 0.9021 0.9678
vt 0.8724 0.9392
vt 0.8553 0.9955
vt 0.844 0.9559
vt 0.801 0.9956
vt 0.8111 0.9557
vt 0.7541 0.9682
vt 0.783 0.9386
vt 0.7272 0.9209
vt 0.7672 0.9097
vt 0.7271 0.8665
vt 0.7674 0.8766
vt 0.7539 0.8192
vt 0.7836 0.8479
vt 0.8168 0.85
vt 0.7972 0.8618
vt 0.8395 0.85
vt 0.8591 0.8619
vt 0.8701 0.8821
vt 0.8699 0.9052
vt 0.8588 0.9252
vt 0.8393 0.9371
vt 0.8165 0.9371
vt 0.7969 0.9252
vt 0.786 0.9049
vt 0.7861 0.8819
vt 0.8326 0.8766
vt 0.8239 0.8766
vt 0.8399 0.8814
vt 0.8438 0.8892
vt 0.8438 0.898
vt 0.8396 0.9058
vt 0.8322 0.9105
vt 0.8235 0.9104
vt 0.8162 0.9057
vt 0.8122 0.8979
vt 0.8123 0.889
vt 0.8165 0.8812
vt 0.828 0.8935
vt 0.8322 0.0086
vt 0.8849 0.0084
vt 0.8851 0.0845
vt 0.8325 0.0847
vt 0.5691 0.0094
vt 0.6217 0.0092
vt 0.6219 0.0853
vt 0.5693 0.0855
vt 0.6743 0.0091
vt 0.6746 0.0852
vt 0.727 0.0089
vt 0.7272 0.085
vt 0.7796 0.0087
vt 0.7798 0.0848
vn -0.2171 0.5444 0.8103
vn 0.2171 0.5443 0.8103
vn 0.5932 0.5443 0.5932
vn 0.8103 0.5443 0.217
vn 0.8103 0.5443 0.2171
vn 0.8103 0.5444 -0.2171
vn 0.8103 0.5444 -0.217
vn 0.5932 0.5444 -0.5931
vn 0.5931 0.5444 -0.5931
vn 0.2171 0.5443 -0.8103
vn -0.2171 0.5443 -0.8103
vn -0.5931 0.5443 -0.5932
vn -0.5932 0.5443 -0.5932
vn -0.8103 0.5443 -0.2172
vn -0.8103 0.5443 -0.2171
vn -0.8103 0.5443 0.2171
vn -0.8103 0.5443 0.2172
vn -0.5932 0.5443 0.5932
vn -0.1033 0.9169 0.3855
vn -0.0242 0.9956 0.0906
vn -0.0662 0.9956 0.0662
vn -0.2821 0.9169 0.2822
vn 0.1032 0.917 0.3854
vn 0.0242 0.9956 0.0905
vn 0.282 0.9171 0.2819
vn 0.0662 0.9956 0.0662
vn 0.3852 0.917 0.1032
vn 0.0905 0.9956 0.0242
vn 0.3855 0.9169 -0.1032
vn 0.0905 0.9956 -0.0242
vn 0.2821 0.9169 -0.2821
vn 0.0663 0.9956 -0.0663
vn 0.1032 0.917 -0.3853
vn 0.0242 0.9956 -0.0905
vn -0.1032 0.917 -0.3852
vn -0.0242 0.9956 -0.0905
vn -0.282 0.9171 -0.282
vn -0.0662 0.9956 -0.0663
vn -0.3851 0.9171 -0.1032
vn -0.0905 0.9956 -0.0243
vn -0.3852 0.917 0.1033
vn -0.0905 0.9956 0.0242
vn -0.033 0.9918 -0.1231
vn 0.033 0.9918 -0.1231
vn -0.0902 0.9918 -0.0901
vn -0.1231 0.9918 -0.033
vn -0.1231 0.9918 0.033
vn -0.0901 0.9918 0.0901
vn -0.033 0.9918 0.1231
vn 0.033 0.9918 0.1231
vn 0.0901 0.9918 0.0901
vn 0.1231 0.9918 0.033
vn 0.1231 0.9918 -0.033
vn 0.0901 0.9918 -0.0901
vn 0 1 0
vn 0.5 0 -0.866
vn -0.5 0 -0.866
vn -1 0 0
vn -0.5 0 0.866
vn 0.5 0 0.866
vn 1 0 0
g ModelComponent
f 1/1/1 2/2/2 3/3/2 4/4/1
f 2/2/2 5/5/3 6/6/3 3/3/2
f 5/5/3 7/7/4 8/8/5 6/6/3
f 7/7/4 9/9/6 10/10/7 8/8/5
f 9/9/6 11/11/8 12/12/9 10/10/7
f 11/11/8 13/13/10 14/14/10 12/12/9
f 13/13/10 15/15/11 16/16/11 14/14/10
f 15/15/11 17/17/12 18/18/13 16/16/11
f 17/17/12 19/19/14 20/20/15 18/18/13
f 19/19/14 21/21/16 22/22/17 20/20/15
f 21/21/16 23/23/18 24/24/18 22/22/17
f 23/23/18 1/1/1 4/4/1 24/24/18
f 4/4/19 25/25/20 26/26/21 24/24/22
f 25/25/20 4/4/19 3/3/23 27/27/24
f 27/27/24 3/3/23 6/6/25 28/28/26
f 28/28/26 6/6/25 8/8/27 29/29/28
f 29/29/28 8/8/27 10/10/29 30/30/30
f 30/30/30 10/10/29 12/12/31 31/31/32
f 31/31/32 12/12/31 14/14/33 32/32/34
f 32/32/34 14/14/33 16/16/35 33/33/36
f 33/33/36 16/16/35 18/18/37 34/34/38
f 34/34/38 18/18/37 20/20/39 35/35/40
f 35/35/40 20/20/39 22/22/41 36/36/42
f 36/36/42 22/22/41 24/24/22 26/26/21
f 25/25/20 27/27/24 37/37/43 38/38/44
f 27/27/24 28/28/26 39/39/45 37/37/43
f 28/28/26 29/29/28 40/40/46 39/39/45
f 29/29/28 30/30/30 41/41/47 40/40/46
f 30/30/30 31/31/32 42/42/48 41/41/47
f 31/31/32 32/32/34 43/43/49 42/42/48
f 32/32/34 33/33/36 44/44/50 43/43/49
f 33/33/36 34/34/38 45/45/51 44/44/50
f 34/34/38 35/35/40 46/46/52 45/45/51
f 35/35/40 36/36/42 47/47/53 46/46/52
f 36/36/42 26/26/21 48/48/54 47/47/53
f 26/26/21 25/25/20 38/38/44 48/48/54
f 45/45/51 49/49/55 44/44/50
f 37/37/43 39/39/45 49/49/55
f 49/49/55 39/39/45 40/40/46
f 49/49/55 40/40/46 41/41/47
f 49/49/55 41/41/47 42/42/48
f 49/49/55 42/42/48 43/43/49
f 49/49/55 43/43/49 44/44/50
f 46/46/52 49/49/55 45/45/51
f 47/47/53 49/49/55 46/46/52
f 48/48/54 49/49/55 47/47/53
f 38/38/44 49/49/55 48/48/54
f 37/37/43 49/49/55 38/38/44
f 50/50/56 51/51/57 52/52/57 53/53/56
f 51/54/57 54/55/58 55/56/58 52/57/57
f 54/55/58 56/58/59 57/59/59 55/56/58
f 56/58/59 58/60/60 59/61/60 57/59/59
f 58/60/60 60/62/61 61/63/61 59/61/60
f 60/62/61 50/50/56 53/53/56 61/63/61
#h 
